<svg width="36" height="40" viewBox="0 0 36 40" fill="none" xmlns="http://www.w3.org/2000/svg">
<path d="M29.4757 27.8739C28.0008 27.8739 26.6812 28.4561 25.672 29.3682L11.8351 21.3144C11.9321 20.868 12.0097 20.4217 12.0097 19.9559C12.0097 19.4902 11.9321 19.0438 11.8351 18.5975L25.5168 10.6213C26.5647 11.5917 27.9426 12.1933 29.4757 12.1933C32.6972 12.1933 35.2977 9.59278 35.2977 6.37127C35.2977 3.14976 32.6972 0.549271 29.4757 0.549271C26.2542 0.549271 23.6537 3.14976 23.6537 6.37127C23.6537 6.83703 23.7313 7.28338 23.8284 7.72974L10.1467 15.7059C9.09872 14.7355 7.72085 14.1339 6.18772 14.1339C2.96622 14.1339 0.365723 16.7344 0.365723 19.9559C0.365723 23.1774 2.96622 25.7779 6.18772 25.7779C7.72085 25.7779 9.09872 25.1763 10.1467 24.206L23.9642 32.2792C23.8672 32.6867 23.809 33.1137 23.809 33.5406C23.809 36.6651 26.3512 39.2073 29.4757 39.2073C32.6002 39.2073 35.1425 36.6651 35.1425 33.5406C35.1425 30.4161 32.6002 27.8739 29.4757 27.8739Z" fill="white"/>
</svg>
